{
  "accessors": [
    {
      "bufferView": 2,
      "componentType": 5126,
      "count": 558,
      "max": [
        0.5138123035430908,
        1.0910511016845703,
        0.5615134239196777
      ],
      "min": [
        -0.45395445823669434,
        0.0082206130027771,
        -0.3958111107349396
      ],
      "type": "VEC3"
    },
    {
      "bufferView": 2,
      "byteOffset": 6696,
      "componentType": 5126,
      "count": 558,
      "max": [
        0.9879274368286133,
        0.9438247680664063,
        0.9805025458335876
      ],
      "min": [
        -0.9999580979347229,
        -0.9997605085372925,
        -0.9965660572052002
      ],
      "type": "VEC3"
    },
    {
      "bufferView": 3,
      "componentType": 5126,
      "count": 558,
      "max": [
        0.8303113579750061,
        0.17123672366142273,
        0.9928762912750244,
        1.0
      ],
      "min": [
        -0.9639461636543274,
        -0.9947459697723389,
        -0.9982450008392334,
        1.0
      ],
      "type": "VEC4"
    },
    {
      "bufferView": 1,
      "componentType": 5126,
      "count": 558,
      "max": [
        0.9193156957626343,
        0.9907668828964233
      ],
      "min": [
        0.04531949758529663,
        0.003433048725128174
      ],
      "type": "VEC2"
    },
    {
      "bufferView": 1,
      "byteOffset": 4464,
      "componentType": 5126,
      "count": 558,
      "max": [
        0.9193156957626343,
        0.9907668828964233
      ],
      "min": [
        0.04531949758529663,
        0.003433048725128174
      ],
      "type": "VEC2"
    },
    {
      "bufferView": 1,
      "byteOffset": 8928,
      "componentType": 5126,
      "count": 558,
      "max": [
        0.9193156957626343,
        0.9907668828964233
      ],
      "min": [
        0.04531949758529663,
        0.003433048725128174
      ],
      "type": "VEC2"
    },
    {
      "bufferView": 1,
      "byteOffset": 13392,
      "componentType": 5126,
      "count": 558,
      "max": [
        0.9193156957626343,
        0.9907668828964233
      ],
      "min": [
        0.04531949758529663,
        0.003433048725128174
      ],
      "type": "VEC2"
    },
    {
      "bufferView": 0,
      "componentType": 5125,
      "count": 3078,
      "type": "SCALAR"
    }
  ],
  "asset": {
    "extras": {
      "author": "vodiva83 (https://sketchfab.com/vodiva83)",
      "license": "CC-BY-4.0 (http://creativecommons.org/licenses/by/4.0/)",
      "source": "https://sketchfab.com/3d-models/a-bag-of-garbage-869820a36262403e98ca36e267911ad6",
      "title": "A bag of garbage."
    },
    "generator": "Sketchfab-15.55.0",
    "version": "2.0"
  },
  "bufferViews": [
    {
      "buffer": 0,
      "byteLength": 12312,
      "name": "floatBufferViews",
      "target": 34963
    },
    {
      "buffer": 0,
      "byteLength": 17856,
      "byteOffset": 12312,
      "byteStride": 8,
      "name": "floatBufferViews",
      "target": 34962
    },
    {
      "buffer": 0,
      "byteLength": 13392,
      "byteOffset": 30168,
      "byteStride": 12,
      "name": "floatBufferViews",
      "target": 34962
    },
    {
      "buffer": 0,
      "byteLength": 8928,
      "byteOffset": 43560,
      "byteStride": 16,
      "name": "floatBufferViews",
      "target": 34962
    }
  ],
  "buffers": [
    {
      "byteLength": 52488,
      "uri": "scene.bin"
    }
  ],
  "images": [
    {
      "uri": "textures/Material_baseColor.jpeg"
    },
    {
      "uri": "textures/Material_metallicRoughness.png"
    },
    {
      "uri": "textures/Material_normal.jpeg"
    }
  ],
  "materials": [
    {
      "doubleSided": true,
      "name": "Material",
      "normalTexture": {
        "index": 2
      },
      "pbrMetallicRoughness": {
        "baseColorTexture": {
          "index": 0
        },
        "metallicRoughnessTexture": {
          "index": 1
        }
      }
    }
  ],
  "meshes": [
    {
      "name": "Object_0",
      "primitives": [
        {
          "attributes": {
            "NORMAL": 1,
            "POSITION": 0,
            "TANGENT": 2,
            "TEXCOORD_0": 3,
            "TEXCOORD_1": 4,
            "TEXCOORD_2": 5,
            "TEXCOORD_3": 6
          },
          "indices": 7,
          "material": 0,
          "mode": 4
        }
      ]
    }
  ],
  "nodes": [
    {
      "children": [
        1
      ],
      "matrix": [
        0.5320568084716797,
        0.0,
        0.0,
        0.0,
        0.0,
        1.1814034383476717e-16,
        -0.5320568084716797,
        0.0,
        0.0,
        0.5320568084716797,
        1.1814034383476717e-16,
        0.0,
        0.0,
        0.0,
        0.0,
        1.0
      ],
      "name": "Sketchfab_model"
    },
    {
      "children": [
        2
      ],
      "name": "root"
    },
    {
      "children": [
        3
      ],
      "matrix": [
        1.0,
        0.0,
        0.0,
        0.0,
        0.0,
        2.220446049250313e-16,
        1.0,
        0.0,
        0.0,
        -1.0,
        2.220446049250313e-16,
        0.0,
        0.0,
        0.0,
        0.0,
        1.0
      ],
      "name": "GLTF_SceneRootNode"
    },
    {
      "children": [
        4
      ],
      "name": "Package_low_0"
    },
    {
      "mesh": 0,
      "name": "Object_4"
    }
  ],
  "samplers": [
    {
      "magFilter": 9729,
      "minFilter": 9987,
      "wrapS": 10497,
      "wrapT": 10497
    }
  ],
  "scene": 0,
  "scenes": [
    {
      "name": "Sketchfab_Scene",
      "nodes": [
        0
      ]
    }
  ],
  "textures": [
    {
      "sampler": 0,
      "source": 0
    },
    {
      "sampler": 0,
      "source": 1
    },
    {
      "sampler": 0,
      "source": 2
    }
  ]
}
